<svg width="178" height="178" viewBox="0 0 178 178" fill="none" xmlns="http://www.w3.org/2000/svg">
<mask id="path-1-outside-1_10_282" maskUnits="userSpaceOnUse" x="0" y="0" width="178" height="178" fill="black">
<rect fill="white" width="178" height="178"/>
<path d="M150.135 69.5292C150.135 69.5292 150.19 69.5304 150.292 69.5292H150.135Z"/>
<path d="M99.4592 128.076C99.4619 134.16 95.7052 138.818 89.2698 138.818C82.8343 138.818 78.0077 133.697 78.0077 127.539C78.0077 121.38 82.8343 117.333 89.2698 117.333C95.7052 117.333 99.4566 121.919 99.4592 128.076Z"/>
</mask>
<path d="M150.135 69.5292C150.135 69.5292 150.19 69.5304 150.292 69.5292H150.135Z" fill="#E7A117"/>
<path d="M99.4592 128.076C99.4619 134.16 95.7052 138.818 89.2698 138.818C82.8343 138.818 78.0077 133.697 78.0077 127.539C78.0077 121.38 82.8343 117.333 89.2698 117.333C95.7052 117.333 99.4566 121.919 99.4592 128.076Z" fill="#E7A117"/>
<path d="M93.0205 26.5679C94.9535 26.5679 96.5205 25.0009 96.5205 23.0679C96.5205 21.1349 94.9535 19.5679 93.0205 19.5679V26.5679ZM55.2122 4V0.5C55.0994 0.5 54.9867 0.505452 54.8744 0.516338L55.2122 4ZM122.785 4L123.102 0.514418C122.996 0.504811 122.89 0.5 122.785 0.5V4ZM108.573 19.5679C106.64 19.5679 105.073 21.1349 105.073 23.0679C105.073 25.0009 106.64 26.5679 108.573 26.5679V19.5679ZM73.7143 42.9329C71.7813 42.9329 70.2143 44.4999 70.2143 46.4329C70.2143 48.3659 71.7813 49.9329 73.7143 49.9329V42.9329ZM150.135 73.0292C152.068 73.0292 153.635 71.4622 153.635 69.5292C153.635 67.5962 152.068 66.0292 150.135 66.0292V73.0292ZM97.0427 66.0292C95.1097 66.0292 93.5427 67.5962 93.5427 69.5292C93.5427 71.4622 95.1097 73.0292 97.0427 73.0292V66.0292ZM134.315 22.7994V19.2994H134.274L134.233 19.3003L134.315 22.7994ZM150.135 46.4329L150.288 42.9362L150.212 42.9329H150.135V46.4329ZM150.292 69.5292L150.252 66.0295L150.292 73.0292V69.5292ZM162.47 69.5292L162.714 66.0377L162.592 66.0292H162.47V69.5292ZM127.343 89.3942C125.41 89.3942 123.843 90.9612 123.843 92.8942C123.843 94.8272 125.41 96.3942 127.343 96.3942V89.3942ZM116.349 112.491C114.416 112.491 112.849 114.058 112.849 115.991C112.849 117.924 114.416 119.491 116.349 119.491V112.491ZM136.192 139.355V142.855H136.447L136.699 142.818L136.192 139.355ZM58.1618 49.9329C60.0948 49.9329 61.6618 48.3659 61.6618 46.4329C61.6618 44.4999 60.0948 42.9329 58.1618 42.9329V49.9329ZM81.7617 73.0292C83.6947 73.0292 85.2617 71.4622 85.2617 69.5292C85.2617 67.5962 83.6947 66.0292 81.7617 66.0292V73.0292ZM27.8647 46.4329V42.9329H27.7885L27.7124 42.9362L27.8647 46.4329ZM15.53 69.5292V66.0292H15.4079L15.2861 66.0377L15.53 69.5292ZM112.595 96.3942C114.528 96.3942 116.095 94.8272 116.095 92.8942C116.095 90.9612 114.528 89.3942 112.595 89.3942V96.3942ZM61.651 119.491C63.5839 119.491 65.151 117.924 65.151 115.991C65.151 114.058 63.5839 112.491 61.651 112.491V119.491ZM62.4521 139.355L62.5125 142.855C64.4335 142.822 65.9686 141.246 65.952 139.325C65.9354 137.404 64.3733 135.855 62.4521 135.855V139.355ZM74.2504 161.923C76.1834 161.923 77.7504 160.356 77.7504 158.423C77.7504 156.49 76.1834 154.923 74.2504 154.923V161.923ZM68.3513 174L67.7239 177.443L68.035 177.5H68.3513V174ZM89.2665 154.923C87.3335 154.923 85.7665 156.49 85.7665 158.423C85.7665 160.356 87.3335 161.923 89.2665 161.923V154.923ZM116.349 135.855C114.416 135.855 112.849 137.422 112.849 139.355C112.849 141.288 114.416 142.855 116.349 142.855V135.855ZM93.0205 19.5679H55.2122V26.5679H93.0205V19.5679ZM55.2122 7.5H122.785V0.5H55.2122V7.5ZM122.785 19.5679H108.573V26.5679H122.785V19.5679ZM150.135 66.0292H97.0427V73.0292H150.135V66.0292ZM122.785 4C122.467 7.48558 122.465 7.48543 122.464 7.48527C122.463 7.48522 122.462 7.48507 122.461 7.48498C122.458 7.48478 122.457 7.4846 122.455 7.48443C122.451 7.48408 122.448 7.48377 122.445 7.48351C122.44 7.48298 122.437 7.48263 122.435 7.48247C122.432 7.48215 122.437 7.48261 122.448 7.48406C122.471 7.48696 122.522 7.49372 122.596 7.50589C122.745 7.53041 122.982 7.57581 123.277 7.65342C123.88 7.81201 124.651 8.0859 125.393 8.53617C126.726 9.34532 128.133 10.777 128.133 13.9368H135.133C135.133 7.96549 132.116 4.42877 129.025 2.5523C127.555 1.65975 126.114 1.16153 125.057 0.8837C124.523 0.743105 124.069 0.654224 123.734 0.599012C123.566 0.571323 123.426 0.551857 123.32 0.538497C123.266 0.531811 123.221 0.526635 123.185 0.522712C123.166 0.52075 123.15 0.519099 123.137 0.517728C123.13 0.517042 123.123 0.516426 123.118 0.515876C123.115 0.515601 123.112 0.515342 123.109 0.5151C123.108 0.514978 123.106 0.514807 123.105 0.514747C123.104 0.514581 123.102 0.514418 122.785 4ZM128.133 13.9368C128.133 15.6292 127.732 16.6646 127.311 17.3164C126.879 17.9849 126.287 18.464 125.604 18.8161C124.906 19.1765 124.166 19.374 123.574 19.4759C123.286 19.5255 123.053 19.5488 122.907 19.5596C122.835 19.5649 122.786 19.567 122.764 19.5678C122.753 19.5682 122.748 19.5682 122.752 19.5681C122.753 19.5681 122.757 19.5681 122.762 19.568C122.765 19.568 122.768 19.568 122.772 19.568C122.774 19.5679 122.776 19.5679 122.778 19.5679C122.779 19.5679 122.781 19.5679 122.781 19.5679C122.783 19.5679 122.785 19.5679 122.785 23.0679C122.785 26.5679 122.786 26.5679 122.788 26.5679C122.789 26.5679 122.791 26.5679 122.792 26.5679C122.795 26.5679 122.797 26.5679 122.8 26.5679C122.806 26.5679 122.813 26.5678 122.82 26.5678C122.834 26.5677 122.85 26.5675 122.868 26.5672C122.905 26.5666 122.95 26.5655 123.004 26.5636C123.112 26.5599 123.252 26.5531 123.422 26.5406C123.76 26.5157 124.219 26.4677 124.76 26.3746C125.827 26.1912 127.3 25.8179 128.814 25.0369C130.343 24.2477 131.963 23.0147 133.19 21.115C134.428 19.1987 135.133 16.8099 135.133 13.9368H128.133ZM55.2122 23.0679C55.2122 19.5679 55.2141 19.5679 55.2159 19.5679C55.2165 19.5679 55.2183 19.5679 55.2194 19.5679C55.2217 19.5679 55.2238 19.568 55.2258 19.568C55.2299 19.568 55.2336 19.568 55.2367 19.568C55.2431 19.5681 55.2476 19.5682 55.2504 19.5682C55.256 19.5683 55.2547 19.5683 55.247 19.568C55.2315 19.5675 55.191 19.5657 55.1291 19.5608C55.004 19.551 54.7999 19.5293 54.5444 19.4825C54.0186 19.3862 53.3627 19.1996 52.743 18.8591C52.1429 18.5294 51.6002 18.0706 51.1936 17.4004C50.7911 16.7369 50.4029 15.6709 50.4029 13.9368H43.4029C43.4029 16.7683 44.0533 19.1265 45.2088 21.0311C46.3602 22.929 47.8949 24.1823 49.3721 24.994C50.8297 25.7949 52.2512 26.1789 53.2834 26.368C53.8069 26.4639 54.2519 26.5135 54.5813 26.5394C54.7466 26.5523 54.8846 26.5595 54.9908 26.5634C55.0439 26.5653 55.0893 26.5664 55.1264 26.5671C55.1449 26.5674 55.1613 26.5676 55.1757 26.5678C55.1828 26.5678 55.1895 26.5679 55.1956 26.5679C55.1986 26.5679 55.2015 26.5679 55.2043 26.5679C55.2057 26.5679 55.2077 26.5679 55.2084 26.5679C55.2103 26.5679 55.2122 26.5679 55.2122 23.0679ZM50.4029 13.9368C50.4029 10.6727 51.7784 9.24581 52.9576 8.4836C53.6262 8.05139 54.3194 7.7897 54.8579 7.63884C55.1215 7.56501 55.3316 7.52233 55.46 7.49979C55.5238 7.48861 55.5658 7.48267 55.5824 7.48046C55.5906 7.47936 55.5924 7.4792 55.5872 7.4798C55.5846 7.4801 55.5802 7.48058 55.574 7.48124C55.571 7.48156 55.5674 7.48193 55.5634 7.48233C55.5614 7.48254 55.5593 7.48275 55.5571 7.48297C55.5559 7.48308 55.5542 7.48326 55.5536 7.48331C55.5518 7.48348 55.55 7.48366 55.2122 4C54.8744 0.516338 54.8726 0.516521 54.8706 0.516709C54.87 0.516776 54.868 0.516968 54.8666 0.517104C54.8639 0.517375 54.861 0.517663 54.858 0.517968C54.852 0.518577 54.8454 0.519254 54.8384 0.520002C54.8242 0.521498 54.8079 0.523281 54.7896 0.525383C54.753 0.529585 54.7081 0.535069 54.6554 0.542097C54.5503 0.556141 54.4138 0.57643 54.2503 0.605113C53.9244 0.662303 53.4853 0.753905 52.9698 0.898286C51.9504 1.18384 50.5662 1.69427 49.1575 2.60487C46.182 4.52828 43.4029 8.0698 43.4029 13.9368H50.4029ZM143.417 34.6161C143.417 36.9097 142.819 38.402 142.096 39.4195C141.349 40.4704 140.309 41.2341 139.13 41.7867C137.943 42.3433 136.711 42.639 135.743 42.7902C135.268 42.8644 134.88 42.9004 134.622 42.9176C134.494 42.9262 134.4 42.93 134.347 42.9317C134.32 42.9325 134.304 42.9328 134.298 42.9329C134.295 42.9329 134.295 42.9329 134.298 42.9329C134.299 42.9329 134.301 42.9329 134.304 42.9329C134.305 42.9329 134.307 42.9329 134.309 42.9329C134.31 42.9329 134.311 42.9329 134.312 42.9329C134.313 42.9329 134.315 42.9329 134.315 46.4329C134.315 49.9329 134.316 49.9329 134.318 49.9329C134.319 49.9329 134.32 49.9329 134.322 49.9329C134.324 49.9328 134.327 49.9328 134.33 49.9328C134.336 49.9328 134.342 49.9328 134.35 49.9327C134.365 49.9326 134.383 49.9324 134.404 49.9321C134.446 49.9315 134.5 49.9303 134.566 49.9283C134.697 49.9242 134.874 49.9165 135.09 49.902C135.522 49.873 136.118 49.8167 136.824 49.7063C138.22 49.4882 140.138 49.0454 142.102 48.1248C144.074 47.2003 146.185 45.7484 147.801 43.4758C149.44 41.1698 150.417 38.2309 150.417 34.6161H143.417ZM122.866 26.567L134.396 26.2984L134.233 19.3003L122.703 19.5689L122.866 26.567ZM134.315 22.7994C134.315 26.2994 134.313 26.2994 134.312 26.2994C134.311 26.2994 134.31 26.2994 134.309 26.2994C134.307 26.2994 134.305 26.2994 134.304 26.2994C134.301 26.2993 134.299 26.2993 134.298 26.2993C134.295 26.2993 134.295 26.2993 134.298 26.2993C134.304 26.2994 134.32 26.2997 134.347 26.3005C134.4 26.3022 134.494 26.306 134.622 26.3146C134.88 26.3319 135.268 26.3678 135.743 26.442C136.711 26.5932 137.943 26.889 139.13 27.4455C140.309 27.9981 141.349 28.7619 142.096 29.8127C142.819 30.8302 143.417 32.3225 143.417 34.6161H150.417C150.417 31.0013 149.44 28.0624 147.801 25.7564C146.185 23.4838 144.074 22.0319 142.102 21.1074C140.138 20.1869 138.22 19.7441 136.824 19.526C136.118 19.4156 135.522 19.3592 135.09 19.3303C134.874 19.3158 134.697 19.3081 134.566 19.304C134.5 19.3019 134.446 19.3008 134.404 19.3001C134.383 19.2998 134.365 19.2996 134.35 19.2995C134.342 19.2995 134.336 19.2994 134.33 19.2994C134.327 19.2994 134.324 19.2994 134.322 19.2994C134.32 19.2994 134.319 19.2994 134.318 19.2994C134.316 19.2994 134.315 19.2994 134.315 22.7994ZM134.315 49.9329H150.135V42.9329H134.315V49.9329ZM150.333 73.029C151.064 73.0205 154.823 73.0424 158.462 71.2543C160.339 70.3322 162.262 68.8935 163.704 66.6751C165.153 64.4444 165.97 61.6466 165.97 58.2496H158.97C158.97 60.4924 158.444 61.9224 157.834 62.8614C157.216 63.8129 156.364 64.4859 155.375 64.9717C153.284 65.9993 150.954 66.0213 150.252 66.0295L150.333 73.029ZM165.97 58.2496C165.97 50.9627 161.82 46.9599 157.87 44.9819C155.963 44.027 154.097 43.5252 152.736 43.2584C152.047 43.1234 151.466 43.0444 151.044 42.9985C150.833 42.9755 150.66 42.9607 150.532 42.9512C150.468 42.9465 150.415 42.9431 150.374 42.9407C150.354 42.9395 150.336 42.9385 150.322 42.9378C150.315 42.9374 150.308 42.9371 150.302 42.9368C150.3 42.9367 150.297 42.9366 150.294 42.9365C150.293 42.9364 150.291 42.9363 150.291 42.9363C150.289 42.9362 150.288 42.9362 150.135 46.4329C149.983 49.9295 149.982 49.9295 149.98 49.9294C149.98 49.9294 149.978 49.9293 149.977 49.9293C149.976 49.9292 149.974 49.9291 149.973 49.9291C149.97 49.929 149.968 49.9289 149.967 49.9288C149.964 49.9286 149.964 49.9286 149.967 49.9288C149.973 49.9291 149.989 49.9301 150.015 49.9321C150.068 49.936 150.161 49.9437 150.287 49.9574C150.54 49.985 150.922 50.0361 151.39 50.1277C152.341 50.3141 153.558 50.6515 154.735 51.2409C156.953 52.3513 158.97 54.2569 158.97 58.2496H165.97ZM162.47 66.0292H150.292V73.0292H162.47V66.0292ZM162.47 92.8942C162.47 96.3942 162.472 96.3942 162.473 96.3942C162.474 96.3942 162.476 96.3941 162.477 96.3941C162.48 96.3941 162.483 96.3941 162.486 96.3941C162.491 96.3941 162.498 96.3941 162.505 96.394C162.52 96.3939 162.538 96.3937 162.558 96.3934C162.599 96.3927 162.651 96.3916 162.714 96.3895C162.838 96.3855 163.006 96.3778 163.209 96.3636C163.616 96.3352 164.174 96.2801 164.835 96.1723C166.14 95.9595 167.934 95.5275 169.773 94.6282C171.623 93.7232 173.591 92.3069 175.091 90.1066C176.608 87.8805 177.5 85.0629 177.5 81.6145H170.5C170.5 83.806 169.951 85.2182 169.306 86.1646C168.644 87.1367 167.729 87.8353 166.697 88.3402C165.653 88.8509 164.565 89.1238 163.708 89.2635C163.288 89.332 162.946 89.365 162.721 89.3806C162.61 89.3884 162.529 89.3918 162.485 89.3933C162.463 89.394 162.451 89.3942 162.448 89.3942C162.446 89.3943 162.447 89.3942 162.451 89.3942C162.453 89.3942 162.455 89.3942 162.459 89.3942C162.46 89.3942 162.462 89.3942 162.464 89.3942C162.465 89.3942 162.466 89.3942 162.467 89.3942C162.468 89.3942 162.47 89.3942 162.47 92.8942ZM177.5 81.6145C177.5 74.467 173.705 70.3903 169.943 68.287C168.136 67.2769 166.364 66.725 165.066 66.4226C164.409 66.2697 163.854 66.1761 163.45 66.1196C163.247 66.0912 163.081 66.072 162.956 66.0593C162.894 66.0529 162.842 66.0481 162.802 66.0447C162.781 66.0429 162.764 66.0415 162.749 66.0404C162.742 66.0398 162.735 66.0393 162.729 66.0389C162.726 66.0386 162.724 66.0384 162.721 66.0382C162.72 66.0382 162.718 66.038 162.717 66.038C162.716 66.0379 162.714 66.0377 162.47 69.5292C162.226 73.0207 162.224 73.0206 162.223 73.0205C162.222 73.0205 162.221 73.0203 162.22 73.0203C162.218 73.0201 162.216 73.02 162.215 73.0199C162.212 73.0197 162.209 73.0195 162.207 73.0194C162.204 73.0191 162.203 73.019 162.204 73.0191C162.207 73.0194 162.22 73.0205 162.243 73.0228C162.287 73.0274 162.368 73.0365 162.481 73.0522C162.707 73.0838 163.053 73.1412 163.478 73.2401C164.341 73.4413 165.452 73.7958 166.527 74.3971C168.53 75.5165 170.5 77.4825 170.5 81.6145H177.5ZM162.47 89.3942H150.135V96.3942H162.47V89.3942ZM150.135 89.3942H127.343V96.3942H150.135V89.3942ZM149.063 115.991C149.063 119.491 149.064 119.491 149.066 119.491C149.066 119.491 149.068 119.491 149.069 119.491C149.071 119.491 149.074 119.491 149.076 119.491C149.082 119.49 149.088 119.49 149.095 119.49C149.109 119.49 149.127 119.49 149.147 119.49C149.189 119.489 149.243 119.488 149.309 119.487C149.441 119.483 149.622 119.476 149.844 119.463C150.287 119.437 150.902 119.386 151.632 119.286C153.075 119.089 155.061 118.687 157.096 117.852C159.126 117.018 161.357 115.689 163.092 113.551C164.875 111.356 165.97 108.505 165.97 104.979H158.97C158.97 106.96 158.389 108.238 157.658 109.139C156.879 110.098 155.759 110.834 154.437 111.376C153.12 111.917 151.754 112.204 150.683 112.351C150.157 112.423 149.724 112.458 149.434 112.475C149.289 112.484 149.182 112.487 149.117 112.489C149.085 112.49 149.064 112.49 149.055 112.49C149.05 112.491 149.048 112.491 149.05 112.491C149.05 112.491 149.052 112.491 149.054 112.491C149.055 112.491 149.056 112.491 149.058 112.491C149.058 112.491 149.06 112.491 149.06 112.491C149.061 112.491 149.063 112.491 149.063 115.991ZM165.97 104.979C165.97 97.8175 161.812 93.7799 157.95 91.7196C156.066 90.7145 154.219 90.1466 152.866 89.8275C152.182 89.6663 151.606 89.5641 151.187 89.501C150.978 89.4694 150.807 89.4473 150.68 89.4326C150.617 89.4252 150.565 89.4196 150.524 89.4155C150.504 89.4134 150.487 89.4117 150.472 89.4104C150.465 89.4097 150.459 89.4091 150.453 89.4086C150.451 89.4084 150.448 89.4081 150.446 89.4079C150.444 89.4078 150.443 89.4077 150.442 89.4076C150.441 89.4075 150.439 89.4074 150.135 92.8942C149.832 96.381 149.83 96.3808 149.829 96.3807C149.828 96.3807 149.827 96.3805 149.826 96.3805C149.825 96.3803 149.823 96.3802 149.822 96.3801C149.819 96.3798 149.817 96.3797 149.816 96.3796C149.814 96.3793 149.814 96.3794 149.817 96.3797C149.824 96.3803 149.841 96.3821 149.868 96.3853C149.922 96.3916 150.016 96.4034 150.143 96.4227C150.4 96.4613 150.786 96.5291 151.259 96.6406C152.219 96.8671 153.456 97.2559 154.655 97.8958C156.96 99.1253 158.97 101.13 158.97 104.979H165.97ZM149.063 112.491H136.728V119.491H149.063V112.491ZM136.728 112.491H116.349V119.491H136.728V112.491ZM136.728 115.991C135.94 119.401 135.938 119.4 135.937 119.4C135.937 119.4 135.935 119.4 135.934 119.399C135.933 119.399 135.931 119.399 135.93 119.398C135.927 119.398 135.925 119.397 135.924 119.397C135.921 119.396 135.92 119.396 135.922 119.396C135.925 119.397 135.938 119.4 135.959 119.406C136.001 119.417 136.076 119.437 136.18 119.468C136.39 119.53 136.71 119.634 137.104 119.785C137.902 120.093 138.944 120.578 139.962 121.284C141.963 122.671 143.686 124.739 143.686 128.076H150.686C150.686 121.744 147.179 117.77 143.951 115.531C142.355 114.425 140.783 113.701 139.62 113.253C139.033 113.027 138.537 112.866 138.174 112.758C137.993 112.704 137.844 112.663 137.732 112.634C137.677 112.62 137.63 112.608 137.594 112.599C137.576 112.595 137.56 112.591 137.547 112.588C137.541 112.586 137.535 112.585 137.53 112.584C137.527 112.583 137.525 112.582 137.523 112.582C137.521 112.582 137.52 112.581 137.519 112.581C137.518 112.581 137.516 112.58 136.728 115.991ZM143.686 128.076C143.686 131.275 141.984 133.111 139.918 134.322C138.86 134.943 137.769 135.346 136.925 135.594C136.509 135.716 136.17 135.795 135.947 135.842C135.836 135.865 135.755 135.88 135.709 135.888C135.686 135.892 135.672 135.894 135.668 135.895C135.666 135.895 135.666 135.895 135.668 135.895C135.67 135.895 135.672 135.894 135.674 135.894C135.676 135.894 135.677 135.893 135.679 135.893C135.68 135.893 135.681 135.893 135.681 135.893C135.683 135.893 135.684 135.892 136.192 139.355C136.699 142.818 136.701 142.818 136.702 142.818C136.703 142.818 136.704 142.818 136.706 142.818C136.708 142.817 136.71 142.817 136.713 142.816C136.718 142.816 136.724 142.815 136.731 142.814C136.744 142.812 136.76 142.809 136.779 142.806C136.816 142.8 136.864 142.792 136.921 142.782C137.037 142.762 137.192 142.733 137.381 142.693C137.759 142.614 138.279 142.492 138.894 142.311C140.111 141.955 141.769 141.351 143.459 140.361C146.89 138.349 150.686 134.545 150.686 128.076H143.686ZM27.8647 73.0292H81.7617V66.0292H27.8647V73.0292ZM27.8474 34.8847C27.8474 38.4822 28.7985 41.4045 30.4163 43.694C32.0132 45.9541 34.1041 47.3791 36.0593 48.2731C38.0034 49.162 39.8999 49.5675 41.2766 49.7574C41.974 49.8535 42.5622 49.8976 42.9889 49.9175C43.2029 49.9275 43.378 49.9315 43.5079 49.9328C43.573 49.9335 43.6268 49.9335 43.6688 49.9332C43.6897 49.9331 43.7077 49.9329 43.7227 49.9327C43.7301 49.9326 43.7369 49.9324 43.7428 49.9323C43.7457 49.9323 43.7485 49.9322 43.7511 49.9322C43.7524 49.9322 43.7542 49.9321 43.7548 49.9321C43.7565 49.9321 43.7582 49.932 43.682 46.4329C43.6058 42.9337 43.6074 42.9337 43.609 42.9336C43.6094 42.9336 43.6109 42.9336 43.6119 42.9336C43.6137 42.9335 43.6153 42.9335 43.6168 42.9335C43.6197 42.9334 43.622 42.9334 43.6235 42.9334C43.6266 42.9333 43.6269 42.9333 43.6245 42.9333C43.6198 42.9334 43.6044 42.9334 43.5791 42.9332C43.5283 42.9327 43.4385 42.9309 43.3151 42.9251C43.0673 42.9136 42.6919 42.8863 42.2329 42.823C41.2968 42.6939 40.1097 42.4281 38.9701 41.907C37.8417 41.391 36.8489 40.6675 36.1331 39.6545C35.4381 38.6709 34.8474 37.1955 34.8474 34.8847H27.8474ZM55.2122 19.5679H43.682V26.5679H55.2122V19.5679ZM43.682 23.0679C43.682 19.5679 43.6803 19.5679 43.6786 19.5679C43.678 19.5679 43.6762 19.5679 43.6749 19.5679C43.6723 19.5679 43.6695 19.568 43.6666 19.568C43.6607 19.568 43.6539 19.568 43.6465 19.5681C43.6315 19.5682 43.6135 19.5684 43.5926 19.5687C43.5506 19.5694 43.4968 19.5705 43.4318 19.5726C43.3019 19.5767 43.1269 19.5845 42.9131 19.5992C42.4866 19.6284 41.8992 19.6852 41.2029 19.7963C39.8275 20.016 37.9373 20.4618 36.0027 21.3885C34.0578 22.3201 31.9846 23.7795 30.4018 26.0539C28.7986 28.3579 27.8474 31.2864 27.8474 34.8847H34.8474C34.8474 32.5746 35.4381 31.0718 36.1476 30.0523C36.8775 29.0033 37.8879 28.2471 39.0267 27.7016C40.1758 27.1512 41.3693 26.8584 42.3066 26.7088C42.7667 26.6353 43.1429 26.5998 43.391 26.5828C43.5144 26.5744 43.6044 26.5707 43.6552 26.569C43.6806 26.5682 43.696 26.5679 43.7007 26.5679C43.7031 26.5678 43.7028 26.5679 43.6997 26.5679C43.6982 26.5679 43.6959 26.5679 43.693 26.5679C43.6915 26.5679 43.6899 26.5679 43.688 26.5679C43.6871 26.5679 43.6856 26.5679 43.6852 26.5679C43.6836 26.5679 43.682 26.5679 43.682 23.0679ZM43.682 42.9329H27.8647V49.9329H43.682V42.9329ZM27.8647 69.5292C27.8647 66.0292 27.8662 66.0292 27.8677 66.0292C27.8681 66.0292 27.8695 66.0292 27.8704 66.0292C27.8721 66.0292 27.8736 66.0292 27.875 66.0292C27.8778 66.0293 27.8798 66.0293 27.8811 66.0293C27.8838 66.0293 27.8837 66.0293 27.8809 66.0293C27.8753 66.0292 27.859 66.0289 27.8328 66.0281C27.7802 66.0265 27.6883 66.0228 27.5628 66.0146C27.3107 65.9982 26.9298 65.9638 26.4647 65.8929C25.5169 65.7485 24.3116 65.4661 23.1528 64.9362C21.9999 64.4091 20.9986 63.6868 20.2855 62.7088C19.6002 61.7687 19.03 60.3891 19.03 58.2496H12.03C12.03 61.7499 13.0017 64.6002 14.6291 66.8325C16.2288 69.0268 18.3111 70.4195 20.242 71.3023C22.1667 72.1824 24.0451 72.605 25.41 72.813C26.1013 72.9184 26.6841 72.9722 27.1065 72.9998C27.3183 73.0136 27.4914 73.0209 27.6195 73.0248C27.6836 73.0268 27.7366 73.0279 27.7777 73.0285C27.7982 73.0288 27.8158 73.029 27.8303 73.0291C27.8376 73.0291 27.8441 73.0292 27.8498 73.0292C27.8527 73.0292 27.8554 73.0292 27.8578 73.0292C27.8591 73.0292 27.8608 73.0292 27.8614 73.0292C27.8631 73.0292 27.8647 73.0292 27.8647 69.5292ZM19.03 58.2496C19.03 54.2569 21.0471 52.3513 23.2646 51.2409C24.4415 50.6515 25.6594 50.3141 26.6104 50.1277C27.0779 50.0361 27.4604 49.985 27.7135 49.9574C27.8394 49.9437 27.9317 49.936 27.9845 49.9321C28.0109 49.9301 28.0273 49.9291 28.033 49.9288C28.0358 49.9286 28.0359 49.9286 28.0333 49.9288C28.032 49.9289 28.03 49.929 28.0272 49.9291C28.0259 49.9291 28.0243 49.9292 28.0226 49.9293C28.0218 49.9293 28.0203 49.9294 28.0199 49.9294C28.0184 49.9295 28.0169 49.9295 27.8647 46.4329C27.7124 42.9362 27.7108 42.9362 27.7091 42.9363C27.7085 42.9363 27.7068 42.9364 27.7056 42.9365C27.7031 42.9366 27.7004 42.9367 27.6976 42.9368C27.6919 42.9371 27.6854 42.9374 27.6781 42.9378C27.6636 42.9385 27.6461 42.9395 27.6256 42.9407C27.5846 42.9431 27.5317 42.9465 27.4677 42.9512C27.3399 42.9607 27.1672 42.9755 26.9559 42.9985C26.5343 43.0444 25.9532 43.1234 25.2643 43.2584C23.9026 43.5252 22.0368 44.027 20.1302 44.9819C16.1803 46.9599 12.03 50.9627 12.03 58.2496H19.03ZM15.53 73.0292H27.8647V66.0292H15.53V73.0292ZM15.53 92.8942C15.53 89.3942 15.5317 89.3942 15.5333 89.3942C15.5337 89.3942 15.5353 89.3942 15.5362 89.3942C15.5381 89.3942 15.5399 89.3942 15.5414 89.3942C15.5446 89.3942 15.547 89.3942 15.5489 89.3942C15.5525 89.3942 15.5536 89.3943 15.5522 89.3942C15.5494 89.3942 15.5366 89.394 15.5146 89.3933C15.4706 89.3918 15.3901 89.3884 15.2786 89.3806C15.0544 89.365 14.7117 89.332 14.2917 89.2635C13.4347 89.1238 12.347 88.8509 11.3029 88.3402C10.2707 87.8353 9.35628 87.1367 8.69384 86.1646C8.04893 85.2182 7.5 83.806 7.5 81.6145H0.5C0.5 85.0629 1.39233 87.8805 2.9093 90.1066C4.40874 92.3069 6.37681 93.7232 8.22715 94.6282C10.0655 95.5275 11.8603 95.9595 13.1652 96.1723C13.8261 96.2801 14.3843 96.3352 14.7906 96.3636C14.9944 96.3778 15.1617 96.3855 15.2865 96.3895C15.349 96.3916 15.401 96.3927 15.4417 96.3934C15.4622 96.3937 15.4798 96.3939 15.4945 96.394C15.5019 96.3941 15.5085 96.3941 15.5145 96.3941C15.5174 96.3941 15.5202 96.3941 15.5228 96.3941C15.5241 96.3941 15.5259 96.3942 15.5266 96.3942C15.5283 96.3942 15.53 96.3942 15.53 92.8942ZM7.5 81.6145C7.5 77.4825 9.47028 75.5165 11.4728 74.3971C12.5484 73.7958 13.6589 73.4413 14.5225 73.2401C14.9471 73.1412 15.293 73.0838 15.519 73.0522C15.6316 73.0365 15.7128 73.0274 15.7574 73.0228C15.7797 73.0205 15.7926 73.0194 15.7957 73.0191C15.7972 73.019 15.7962 73.0191 15.7926 73.0194C15.7908 73.0195 15.7884 73.0197 15.7853 73.0199C15.7837 73.02 15.782 73.0201 15.7802 73.0203C15.7792 73.0203 15.7777 73.0205 15.7772 73.0205C15.7756 73.0206 15.774 73.0207 15.53 69.5292C15.2861 66.0377 15.2844 66.0379 15.2826 66.038C15.282 66.038 15.2802 66.0382 15.2789 66.0382C15.2763 66.0384 15.2735 66.0386 15.2706 66.0389C15.2647 66.0393 15.2581 66.0398 15.2508 66.0404C15.2361 66.0415 15.2186 66.0429 15.1983 66.0447C15.1577 66.0481 15.1059 66.0529 15.0437 66.0593C14.9194 66.072 14.7529 66.0912 14.5502 66.1196C14.1457 66.1761 13.5908 66.2697 12.9345 66.4226C11.6362 66.725 9.86411 67.2769 8.05719 68.287C4.29474 70.3903 0.5 74.467 0.5 81.6145H7.5ZM15.53 96.3942H27.8647V89.3942H15.53V96.3942ZM27.8647 96.3942H112.595V89.3942H27.8647V96.3942ZM29.4737 115.991C29.4737 112.491 29.475 112.491 29.4762 112.491C29.4766 112.491 29.4778 112.491 29.4785 112.491C29.4798 112.491 29.481 112.491 29.482 112.491C29.484 112.491 29.4851 112.491 29.4855 112.491C29.4862 112.491 29.4838 112.491 29.4783 112.49C29.4672 112.49 29.4439 112.49 29.4092 112.489C29.3397 112.487 29.225 112.483 29.0716 112.475C28.7639 112.457 28.3069 112.421 27.7517 112.348C26.6231 112.2 25.1804 111.909 23.7872 111.359C22.3851 110.805 21.2005 110.056 20.3831 109.087C19.6199 108.183 19.03 106.923 19.03 104.979H12.03C12.03 108.542 13.1831 111.41 15.0343 113.603C16.8314 115.732 19.1327 117.047 21.2165 117.87C23.3093 118.696 25.3525 119.093 26.8383 119.289C27.5903 119.388 28.2226 119.438 28.6774 119.463C28.9054 119.476 29.0902 119.483 29.225 119.487C29.2924 119.488 29.3474 119.489 29.3891 119.49C29.41 119.49 29.4275 119.49 29.4416 119.49C29.4487 119.49 29.4549 119.49 29.4603 119.491C29.4629 119.491 29.4654 119.491 29.4676 119.491C29.4687 119.491 29.4703 119.491 29.4708 119.491C29.4723 119.491 29.4737 119.491 29.4737 115.991ZM19.03 104.979C19.03 101.13 21.0398 99.1253 23.3447 97.8958C24.5442 97.2559 25.7807 96.8671 26.7409 96.6406C27.2136 96.5291 27.6005 96.4613 27.8568 96.4227C27.9844 96.4034 28.0782 96.3916 28.1323 96.3853C28.1594 96.3821 28.1764 96.3803 28.1827 96.3797C28.1858 96.3794 28.1862 96.3793 28.1839 96.3796C28.1827 96.3797 28.1808 96.3798 28.1782 96.3801C28.177 96.3802 28.1755 96.3803 28.1738 96.3805C28.173 96.3805 28.1716 96.3807 28.1712 96.3807C28.1698 96.3808 28.1683 96.381 27.8647 92.8942C27.561 89.4074 27.5594 89.4075 27.5578 89.4076C27.5572 89.4077 27.5556 89.4078 27.5544 89.4079C27.552 89.4081 27.5494 89.4084 27.5466 89.4086C27.541 89.4091 27.5347 89.4097 27.5276 89.4104C27.5133 89.4117 27.4961 89.4134 27.4759 89.4155C27.4355 89.4196 27.3832 89.4252 27.3199 89.4326C27.1934 89.4473 27.0222 89.4694 26.8126 89.501C26.3943 89.5641 25.8175 89.6663 25.1339 89.8275C23.7813 90.1466 21.9342 90.7145 20.05 91.7196C16.1876 93.7799 12.03 97.8175 12.03 104.979H19.03ZM29.4737 119.491H41.272V112.491H29.4737V119.491ZM41.272 119.491H61.651V112.491H41.272V119.491ZM41.8083 142.855H62.4521V135.855H41.8083V142.855ZM41.272 115.991C41.0032 112.501 41.0013 112.501 40.9994 112.501C40.9987 112.501 40.9967 112.501 40.9953 112.501C40.9926 112.502 40.9896 112.502 40.9865 112.502C40.9803 112.503 40.9734 112.503 40.9659 112.504C40.9508 112.505 40.9332 112.507 40.9129 112.509C40.8725 112.513 40.8218 112.518 40.7616 112.524C40.6412 112.538 40.4821 112.558 40.2896 112.588C39.9058 112.647 39.3834 112.744 38.7674 112.903C37.548 113.216 35.8914 113.785 34.2068 114.824C30.6691 117.004 27.3144 121.097 27.3144 128.076H34.3144C34.3144 123.775 36.1885 121.825 37.8796 120.783C38.8094 120.21 39.7672 119.873 40.5086 119.683C40.8731 119.589 41.1676 119.535 41.3557 119.506C41.4492 119.492 41.5147 119.484 41.5476 119.48C41.5639 119.478 41.572 119.478 41.5711 119.478C41.5706 119.478 41.568 119.478 41.563 119.478C41.5604 119.479 41.5574 119.479 41.5537 119.479C41.5518 119.479 41.5499 119.479 41.5477 119.48C41.5467 119.48 41.5449 119.48 41.5444 119.48C41.5427 119.48 41.5409 119.48 41.272 115.991ZM27.3144 128.076C27.3144 131.49 28.1553 134.285 29.5973 136.504C31.028 138.706 32.9175 140.138 34.7138 141.06C36.4945 141.973 38.2344 142.413 39.5006 142.629C40.1418 142.739 40.684 142.795 41.0801 142.824C41.2787 142.839 41.4423 142.846 41.5652 142.851C41.6267 142.853 41.6781 142.854 41.7188 142.855C41.7392 142.855 41.7569 142.855 41.7718 142.855C41.7793 142.855 41.7861 142.855 41.7922 142.855C41.7952 142.855 41.7981 142.855 41.8008 142.855C41.8021 142.855 41.804 142.855 41.8047 142.855C41.8065 142.855 41.8083 142.855 41.8083 139.355C41.8083 135.855 41.81 135.855 41.8117 135.855C41.8122 135.855 41.8138 135.855 41.8148 135.855C41.8169 135.855 41.8187 135.855 41.8204 135.855C41.8238 135.855 41.8266 135.856 41.8288 135.856C41.8332 135.856 41.8351 135.856 41.8347 135.856C41.8338 135.856 41.8235 135.855 41.8045 135.855C41.7663 135.853 41.6937 135.85 41.5917 135.843C41.3865 135.828 41.0699 135.796 40.6804 135.729C39.8853 135.593 38.8766 135.328 37.9089 134.831C36.9567 134.343 36.0977 133.66 35.467 132.69C34.8478 131.737 34.3144 130.301 34.3144 128.076H27.3144ZM58.9662 158.423C58.9662 154.923 58.9675 154.923 58.9688 154.923C58.9691 154.923 58.9703 154.923 58.971 154.923C58.9725 154.923 58.9737 154.923 58.9748 154.923C58.9769 154.923 58.9784 154.923 58.9791 154.923C58.9807 154.923 58.9794 154.923 58.9756 154.923C58.9679 154.923 58.9496 154.923 58.9216 154.922C58.8654 154.921 58.7704 154.918 58.6422 154.91C58.3848 154.896 58 154.866 57.5315 154.806C56.5763 154.682 55.3649 154.44 54.2033 153.987C53.0312 153.531 52.082 152.927 51.4443 152.182C50.8634 151.503 50.3998 150.551 50.3998 149.024H43.3998C43.3998 152.196 44.4444 154.769 46.126 156.734C47.7507 158.632 49.8182 159.791 51.6627 160.51C53.5177 161.232 55.3229 161.578 56.6302 161.747C57.293 161.833 57.8508 161.877 58.2533 161.9C58.4551 161.911 58.6193 161.917 58.7399 161.92C58.8002 161.921 58.8497 161.922 58.8876 161.923C58.9066 161.923 58.9227 161.923 58.9359 161.923C58.9424 161.923 58.9482 161.923 58.9533 161.923C58.9558 161.923 58.9582 161.923 58.9603 161.923C58.9614 161.923 58.9629 161.923 58.9634 161.923C58.9649 161.923 58.9662 161.923 58.9662 158.423ZM50.3998 149.024C50.3998 146.813 52.0996 145.162 55.741 143.999C57.4015 143.468 59.1087 143.176 60.4322 143.02C61.0856 142.943 61.626 142.901 61.995 142.879C62.1791 142.868 62.3193 142.862 62.4083 142.858C62.4528 142.857 62.4843 142.856 62.502 142.855C62.5109 142.855 62.5163 142.855 62.518 142.855C62.5189 142.855 62.5189 142.855 62.518 142.855C62.5176 142.855 62.5169 142.855 62.516 142.855C62.5155 142.855 62.5147 142.855 62.5144 142.855C62.5135 142.855 62.5125 142.855 62.4521 139.355C62.3917 135.856 62.3906 135.856 62.3894 135.856C62.389 135.856 62.3878 135.856 62.3868 135.856C62.385 135.856 62.3829 135.856 62.3805 135.856C62.3758 135.856 62.3702 135.856 62.3636 135.857C62.3505 135.857 62.3335 135.857 62.313 135.858C62.2718 135.859 62.216 135.861 62.1466 135.863C62.0077 135.868 61.8139 135.877 61.5727 135.892C61.0912 135.921 60.4165 135.973 59.6119 136.068C58.0193 136.256 55.8385 136.619 53.6108 137.331C49.4761 138.652 43.3998 141.835 43.3998 149.024H50.3998ZM65.9554 166.212C65.9554 164.208 66.8186 163.26 67.6581 162.682C68.132 162.356 68.6278 162.141 69.0144 162.009C69.2024 161.945 69.35 161.906 69.4358 161.885C69.4782 161.875 69.5041 161.869 69.5106 161.868C69.5138 161.867 69.512 161.868 69.5049 161.869C69.5014 161.87 69.4965 161.871 69.4902 161.872C69.4871 161.872 69.4836 161.873 69.4797 161.873C69.4778 161.874 69.4758 161.874 69.4737 161.875C69.4726 161.875 69.471 161.875 69.4705 161.875C69.4688 161.875 69.4671 161.876 68.8908 158.423C68.3146 154.971 68.3128 154.971 68.3111 154.972C68.3104 154.972 68.3086 154.972 68.3074 154.972C68.3049 154.973 68.3023 154.973 68.2996 154.974C68.2942 154.975 68.2884 154.976 68.2822 154.977C68.2697 154.979 68.2556 154.981 68.2398 154.984C68.2084 154.99 68.1705 154.997 68.1265 155.006C68.0387 155.024 67.9264 155.048 67.7929 155.08C67.5267 155.145 67.1715 155.242 66.7562 155.383C65.9362 155.663 64.8231 156.136 63.6882 156.917C61.3099 158.555 58.9554 161.501 58.9554 166.212H65.9554ZM68.8908 161.923H74.2504V154.923H68.8908V161.923ZM68.3513 174C68.9787 170.557 68.9805 170.557 68.9823 170.557C68.9829 170.557 68.9847 170.558 68.9858 170.558C68.9881 170.558 68.9904 170.559 68.9925 170.559C68.9968 170.56 69.0008 170.561 69.0044 170.561C69.0117 170.563 69.0178 170.564 69.0227 170.565C69.0323 170.567 69.0372 170.568 69.0376 170.568C69.0383 170.568 69.0216 170.565 68.9899 170.556C68.9257 170.539 68.8062 170.505 68.6503 170.447C68.33 170.328 67.9108 170.13 67.5062 169.826C66.8118 169.304 65.9554 168.349 65.9554 166.212H58.9554C58.9554 170.788 61.0469 173.728 63.3005 175.421C64.3699 176.225 65.4246 176.716 66.2097 177.008C66.6066 177.155 66.9478 177.257 67.206 177.325C67.3355 177.359 67.4454 177.385 67.5325 177.404C67.5761 177.414 67.6141 177.422 67.6461 177.428C67.6621 177.432 67.6766 177.434 67.6896 177.437C67.6961 177.438 67.7022 177.439 67.7079 177.44C67.7108 177.441 67.7135 177.441 67.7162 177.442C67.7175 177.442 67.7194 177.443 67.7201 177.443C67.722 177.443 67.7239 177.443 68.3513 174ZM58.9662 161.923H68.8908V154.923H58.9662V161.923ZM108.841 174C108.841 177.5 108.843 177.5 108.845 177.5C108.845 177.5 108.847 177.5 108.848 177.5C108.851 177.5 108.853 177.5 108.856 177.5C108.862 177.5 108.868 177.5 108.874 177.5C108.887 177.5 108.902 177.5 108.919 177.499C108.953 177.499 108.994 177.498 109.042 177.496C109.138 177.493 109.264 177.487 109.413 177.476C109.712 177.455 110.115 177.414 110.59 177.335C111.524 177.179 112.822 176.861 114.162 176.19C115.516 175.511 116.976 174.44 118.089 172.767C119.217 171.073 119.849 168.972 119.849 166.48H112.849C112.849 167.749 112.542 168.468 112.262 168.888C111.968 169.331 111.551 169.669 111.028 169.931C110.491 170.199 109.912 170.351 109.438 170.43C109.209 170.468 109.026 170.486 108.914 170.494C108.858 170.498 108.822 170.5 108.809 170.5C108.802 170.5 108.801 170.5 108.806 170.5C108.809 170.5 108.813 170.5 108.819 170.5C108.822 170.5 108.825 170.5 108.829 170.5C108.83 170.5 108.832 170.5 108.834 170.5C108.836 170.5 108.837 170.5 108.838 170.5C108.839 170.5 108.841 170.5 108.841 174ZM119.849 166.48C119.849 161.254 117.104 158.18 114.334 156.594C113.026 155.846 111.752 155.441 110.826 155.22C110.356 155.108 109.956 155.039 109.659 154.996C109.511 154.975 109.386 154.96 109.291 154.95C109.243 154.945 109.202 154.941 109.168 154.939C109.152 154.937 109.137 154.936 109.124 154.935C109.117 154.934 109.111 154.934 109.106 154.933C109.103 154.933 109.1 154.933 109.098 154.933C109.097 154.933 109.095 154.933 109.094 154.933C109.092 154.932 109.091 154.932 108.841 158.423C108.591 161.914 108.59 161.914 108.588 161.914C108.587 161.914 108.586 161.914 108.585 161.914C108.583 161.914 108.581 161.914 108.579 161.914C108.575 161.913 108.572 161.913 108.569 161.913C108.563 161.912 108.559 161.912 108.557 161.912C108.552 161.911 108.553 161.911 108.56 161.912C108.574 161.914 108.611 161.918 108.668 161.926C108.782 161.942 108.969 161.974 109.202 162.029C109.684 162.144 110.287 162.344 110.856 162.67C111.84 163.233 112.849 164.186 112.849 166.48H119.849ZM108.841 170.5H68.3513V177.5H108.841V170.5ZM134.315 42.9329H73.7143V49.9329H134.315V42.9329ZM43.682 49.9329H58.1618V42.9329H43.682V49.9329ZM108.841 154.923H89.2665V161.923H108.841V154.923ZM134.865 148.487C134.865 145.315 133.971 142.721 132.407 140.716C130.876 138.752 128.897 137.599 127.108 136.921C125.324 136.246 123.598 135.991 122.359 135.895C121.729 135.847 121.198 135.837 120.813 135.84C120.62 135.842 120.462 135.847 120.344 135.852C120.285 135.855 120.236 135.857 120.198 135.859C120.178 135.861 120.162 135.862 120.148 135.863C120.141 135.863 120.135 135.863 120.13 135.864C120.127 135.864 120.124 135.864 120.122 135.864C120.121 135.864 120.119 135.865 120.119 135.865C120.117 135.865 120.115 135.865 120.371 139.355C120.627 142.846 120.626 142.846 120.624 142.846C120.624 142.846 120.622 142.846 120.621 142.846C120.62 142.847 120.618 142.847 120.617 142.847C120.614 142.847 120.612 142.847 120.61 142.847C120.607 142.847 120.606 142.848 120.608 142.847C120.611 142.847 120.624 142.847 120.646 142.846C120.689 142.844 120.767 142.841 120.874 142.84C121.09 142.838 121.418 142.843 121.819 142.874C122.641 142.938 123.664 143.102 124.629 143.468C125.587 143.831 126.357 144.34 126.887 145.02C127.385 145.658 127.865 146.69 127.865 148.487H134.865ZM108.841 161.923H120.371V154.923H108.841V161.923ZM120.371 158.423C120.371 161.923 120.373 161.923 120.374 161.923C120.375 161.923 120.377 161.923 120.378 161.923C120.38 161.923 120.383 161.923 120.386 161.923C120.391 161.923 120.397 161.923 120.404 161.923C120.418 161.923 120.435 161.923 120.454 161.923C120.492 161.922 120.541 161.921 120.6 161.919C120.718 161.916 120.876 161.909 121.069 161.897C121.454 161.872 121.983 161.824 122.61 161.729C123.847 161.543 125.555 161.164 127.31 160.371C129.069 159.576 130.986 158.313 132.464 156.309C133.972 154.265 134.865 151.661 134.865 148.487H127.865C127.865 150.281 127.384 151.403 126.831 152.154C126.247 152.944 125.416 153.545 124.427 153.992C123.433 154.441 122.392 154.683 121.568 154.807C121.164 154.868 120.835 154.897 120.618 154.911C120.51 154.918 120.432 154.921 120.389 154.923C120.368 154.923 120.355 154.923 120.352 154.923C120.35 154.923 120.351 154.923 120.354 154.923C120.356 154.923 120.358 154.923 120.361 154.923C120.362 154.923 120.364 154.923 120.366 154.923C120.366 154.923 120.368 154.923 120.368 154.923C120.37 154.923 120.371 154.923 120.371 158.423ZM116.349 142.855H120.371V135.855H116.349V142.855ZM136.192 135.855H120.371V142.855H136.192V135.855ZM150.135 69.5292V62.5292L149.983 76.5276L150.135 69.5292ZM150.292 69.5292L150.374 76.5288L150.292 62.5292V69.5292ZM99.4592 128.076L106.459 128.073L99.4592 128.076ZM150.135 69.5292C149.983 76.5276 149.983 76.5276 149.984 76.5276C149.984 76.5276 149.984 76.5276 149.984 76.5276C149.984 76.5276 149.985 76.5276 149.985 76.5276C149.985 76.5276 149.986 76.5276 149.987 76.5276C149.988 76.5277 149.989 76.5277 149.99 76.5277C149.992 76.5278 149.995 76.5278 149.997 76.5279C150.002 76.528 150.008 76.5281 150.013 76.5282C150.024 76.5284 150.036 76.5285 150.049 76.5287C150.074 76.5291 150.103 76.5294 150.136 76.5296C150.202 76.5299 150.281 76.5298 150.374 76.5288L150.211 62.5297C150.201 62.5298 150.203 62.5297 150.215 62.5298C150.221 62.5298 150.23 62.5299 150.242 62.5301C150.248 62.5301 150.255 62.5303 150.263 62.5304C150.266 62.5305 150.27 62.5305 150.275 62.5306C150.277 62.5307 150.279 62.5307 150.281 62.5307C150.282 62.5308 150.283 62.5308 150.284 62.5308C150.285 62.5308 150.285 62.5308 150.286 62.5308C150.286 62.5309 150.286 62.5309 150.287 62.5309C150.287 62.5309 150.287 62.5309 150.287 62.5309C150.287 62.5309 150.288 62.5309 150.135 69.5292ZM150.292 62.5292H150.135V76.5292H150.292V62.5292ZM92.4592 128.079C92.4599 129.706 91.9672 130.613 91.59 131.03C91.2898 131.362 90.6903 131.818 89.2698 131.818V145.818C94.2848 145.818 98.7813 143.946 101.968 140.427C105.077 136.993 106.461 132.53 106.459 128.073L92.4592 128.079ZM89.2698 131.818C86.8265 131.818 85.0077 129.959 85.0077 127.539H71.0077C71.0077 137.436 78.8421 145.818 89.2698 145.818V131.818ZM85.0077 127.539C85.0077 126.411 85.3941 125.785 85.8671 125.366C86.4141 124.882 87.4996 124.333 89.2698 124.333V110.333C84.6045 110.333 80.059 111.808 76.5838 114.887C73.0347 118.031 71.0077 122.508 71.0077 127.539H85.0077ZM89.2698 124.333C90.7236 124.333 91.3159 124.795 91.5983 125.106C91.9559 125.499 92.4585 126.395 92.4592 128.079L106.459 128.073C106.457 123.6 105.083 119.125 101.955 115.686C98.7525 112.164 94.2514 110.333 89.2698 110.333V124.333Z" fill="#E7A117" mask="url(#path-1-outside-1_10_282)"/>
</svg>
